<svg width="32" height="32" viewBox="0 0 32 32" fill="none" xmlns="http://www.w3.org/2000/svg">
<path d="M0 16C0 24.832 7.168 32 16 32C24.832 32 32 24.832 32 16C32 7.168 24.832 0 16 0C7.168 0 0 7.168 0 16ZM17.2 10.4V18.704L19.952 15.952C20.416 15.488 21.184 15.488 21.648 15.952C21.888 16.192 22 16.496 22 16.8C22 17.104 21.888 17.408 21.648 17.648L16.848 22.448C16.384 22.912 15.616 22.912 15.152 22.448L10.352 17.648C9.888 17.184 9.888 16.416 10.352 15.952C10.816 15.488 11.584 15.488 12.048 15.952L14.8 18.704L14.8 10.4C14.8 9.744 15.344 9.2 16 9.2C16.656 9.2 17.2 9.744 17.2 10.4Z" fill="#181818"/>
</svg>
